<svg width="1024" height="1073" viewBox="0 0 1024 1073" fill="none" xmlns="http://www.w3.org/2000/svg">
<path d="M265.691 1.36107C303.369 -2.26203 352.849 35.619 385.962 55.3357L515.305 132.313L813.823 311.11C872.637 346.371 931.675 381.437 990.056 417.411C997.469 421.975 1008.71 432.877 1008.71 432.877C1008.71 432.877 1016.32 448.77 1017.83 457.446C1020.66 473.153 1020.52 544.652 1016.49 560.548C1013.97 570.562 1008.24 579.475 1000.18 585.925C989.93 594.038 964.152 608.62 951.55 616.192L860.259 671L557 854.07C529.404 869.228 498.158 889.266 470.698 905.738L300.806 1007.78C268.165 1027.45 228.924 1053.07 194.662 1068.2C182.452 1074.74 156.189 1069.16 145.04 1061.35C118.306 1042.61 28.2415 997.749 23.1237 965.252C16.2703 921.735 18.9949 861.215 18.9264 817.251L18.4648 570.104L18.3977 308.326L18.3892 226.351C18.3403 199.842 14.4604 170.499 28.2638 147.271C39.5063 128.353 55.6162 119.971 73.9626 109.053C114.092 85.172 154.392 61.7512 194.519 37.8885C216.242 25.2405 241.638 7.51098 265.691 1.36107Z" fill="black"/>
<path d="M868.525 368.198C877.854 372.598 890.708 380.316 899.422 385.905L908.989 391.481C910.877 392.685 916.122 395.883 917.563 397.129L928.388 402.972C930.752 404.554 936.319 408.509 938.599 409.538L951.215 417.146C956.334 419.809 959.83 421.431 964.474 424.96L975.076 430.8C985.915 438.357 989.944 440.116 996.755 451.374C1000.08 471.928 997.636 477.386 979.887 488.529C910.681 531.036 841.097 572.909 771.122 614.142L423.821 823.026L220.501 944.752C183.308 966.985 142.858 992.883 104.777 1012.4L85.9912 1000.91L474.248 767.974L599.268 692.971C617.003 682.301 648.249 662.218 665.718 653.448C690.097 638.145 716.14 623.098 740.981 608.326C745.988 604.73 752.212 601.23 757.569 598.018C737.918 583.097 717.679 569.448 697.342 555.511L688.615 549.225L678.824 542.778L671.383 537.23C667.173 535.188 665.676 533.69 662.012 530.681L653.536 525.247C644.99 518.482 629.843 508.511 620.472 501.838C622.192 500.525 626.136 498.261 628.15 497.027C631.941 494.666 633.199 494.025 637.311 492.284C648.934 484.828 664.376 476.86 676.88 471.148L686.433 465.491L697.286 459.94C701.832 456.652 709.315 453.226 714.504 450.612C717.721 447.619 736.267 437.936 740.953 436.315C746.995 432.372 752.31 429.892 758.772 426.728C776.703 417.04 794.997 405.915 813.362 397.275C818.663 393.533 823.446 391.544 829.279 388.862C836.706 383.874 859.854 372.633 868.525 368.198Z" fill="#F0EDE7"/>
<path d="M868.526 368.198C877.855 372.598 890.708 380.316 899.422 385.905L908.989 391.481C910.877 392.685 916.122 395.883 917.563 397.129L928.388 402.972C930.752 404.554 936.319 408.509 938.599 409.538L951.215 417.146C956.334 419.809 959.831 421.431 964.474 424.96L975.076 430.8C985.916 438.357 989.944 440.116 996.755 451.374C988.028 455.837 946.753 478.357 943.019 484.696L943.256 488.867L940.865 490.882C934.347 489.778 916.78 474.6 906.975 469.293C893.506 438.608 883.967 420.212 857.504 397.775C841.098 423.412 837.769 430.275 831.391 459.898C812.285 466.245 801.977 470.316 785.878 483.422C759.08 476.277 741.61 471.686 713.553 474.895C717.511 508.324 733.33 530.825 754.772 555.512C756.8 565.943 766.311 591.046 759.597 598.077L757.569 598.018C737.918 583.097 717.679 569.448 697.342 555.511L688.615 549.225L678.824 542.778L671.383 537.23C667.173 535.188 665.677 533.69 662.012 530.681L653.536 525.247C644.99 518.482 629.843 508.511 620.472 501.838C622.192 500.525 626.136 498.261 628.15 497.027C631.941 494.666 633.199 494.025 637.312 492.284C648.934 484.828 664.376 476.86 676.88 471.148L686.433 465.491L697.286 459.94C701.832 456.652 709.315 453.226 714.504 450.612C717.721 447.619 736.267 437.936 740.953 436.315C746.995 432.372 752.31 429.892 758.772 426.728C776.703 417.04 794.997 405.915 813.362 397.275C818.663 393.533 823.446 391.544 829.279 388.862C836.706 383.874 859.854 372.633 868.526 368.198Z" fill="#7B2B2A"/>
<path d="M868.526 368.198C877.855 372.598 890.709 380.316 899.423 385.905C890.821 392.611 887.408 401.675 882.708 411.375C879.883 409.063 870.106 398.571 867.029 395.412C862.987 392.05 862.162 390.69 857.239 390.372C851.994 392.161 851.938 393.229 848.399 397.722L843.672 403.682C842.343 407.098 842.357 407.917 840.147 410.806L835.336 419.472L831.769 428.659L825.839 442.599C816.006 446.435 809.642 449.176 805.082 459.623C804.677 460.565 804.285 461.516 803.921 462.474C798.229 465.33 794.48 467.332 789.012 470.728C784.886 474.653 780.144 475.537 774.857 472.849L769.654 472.112C756.968 468.334 744.394 466.715 731.317 465.373L727.806 465.981C721.218 466.576 712.826 467.115 706.448 468.15C708.253 464.304 714.644 453.453 714.505 450.612C717.722 447.619 736.268 437.936 740.953 436.315C746.996 432.372 752.311 429.892 758.772 426.728C776.703 417.04 794.998 405.915 813.362 397.275C818.663 393.533 823.447 391.544 829.279 388.862C836.706 383.874 859.854 372.633 868.526 368.198Z" fill="#DC7976"/>
<path d="M769.655 472.112C761.598 450.004 794.327 416.584 814.874 413.112C826.371 411.17 827.741 410.271 840.147 410.806L835.336 419.472L831.769 428.659L825.839 442.599C816.006 446.435 809.643 449.175 805.083 459.622C804.677 460.565 804.286 461.516 803.922 462.473C798.229 465.33 794.481 467.331 789.012 470.728C784.886 474.653 780.145 475.537 774.858 472.849L769.655 472.112Z" fill="#EAA29F"/>
<path d="M793.347 455.513C802.368 438.305 814.075 433.77 831.768 428.659L825.838 442.599C816.005 446.435 809.641 449.175 805.081 459.622C804.676 460.565 804.284 461.516 803.92 462.474C798.228 465.33 794.48 467.331 789.011 470.728C788.339 464.374 790.577 461.17 793.347 455.513Z" fill="#EA9D9A"/>
<path d="M835.335 419.472L831.768 428.659C814.075 433.77 802.368 438.305 793.347 455.513C786.773 453.169 788.857 454.77 784.787 449.821C795.263 427.494 813.138 423.379 835.335 419.472Z" fill="#D76B6A"/>
<path d="M774.856 472.849C780.899 470.779 778.982 460.025 784.787 449.822C788.857 454.77 786.773 453.169 793.347 455.513C790.577 461.17 788.34 464.374 789.011 470.728C784.885 474.653 780.143 475.537 774.856 472.849Z" fill="#DC7976"/>
<path d="M727.806 465.981L721.456 464.978C714.63 453.896 754.058 441.07 762.828 448.473C763.108 453.23 763.527 450.881 760.534 455.506C747.946 457.367 740.869 456.901 731.316 465.372L727.806 465.981Z" fill="#EA9D9A"/>
<path d="M843.672 403.682C838.553 400.686 838.217 399.893 839.308 394.572C846.973 386.28 880.709 379.561 883.492 391.567L880.625 395.958C875.758 398.306 873.422 396.615 867.03 395.412C862.988 392.051 862.162 390.69 857.239 390.373C851.994 392.161 851.938 393.23 848.4 397.722L843.672 403.682Z" fill="#EA9D9A"/>
<path d="M758.772 426.728C764.115 427.644 767.682 427.575 771.458 431.26L771.822 433.497C765.346 440.197 749.485 438.566 740.953 436.315C746.995 432.372 752.31 429.892 758.772 426.728Z" fill="#EA9D9A"/>
<path d="M829.279 388.863C830.216 393.157 829.615 394.076 828.342 398.219C825.517 401.533 825.321 402.096 821.013 403.163C816.23 402.154 815.167 402.673 813.362 397.275C818.663 393.533 823.447 391.545 829.279 388.863Z" fill="#EA9D9A"/>
<path d="M882.709 411.376C887.409 401.675 890.821 392.611 899.423 385.905L908.99 391.482C910.878 392.686 916.123 395.884 917.564 397.129L928.389 402.972C930.753 404.555 936.32 408.509 938.6 409.538L951.216 417.147C956.335 419.809 959.832 421.431 964.475 424.961L975.077 430.8C985.917 438.357 989.945 440.116 996.756 451.374C988.029 455.837 946.754 478.358 943.02 484.696C937.453 481.879 936.46 480.48 932.152 475.856C927.998 473.354 921.592 468.593 917.438 465.673C912.445 463.184 911.661 460.614 909.507 455.688L906.346 448.63L903.885 441.812C901.535 438.49 899.899 435.489 897.899 431.945L890.094 420.415L882.709 411.376Z" fill="#DC7976"/>
<path d="M882.709 411.376C887.409 401.675 890.821 392.611 899.423 385.905L908.99 391.482C910.878 392.686 916.123 395.884 917.564 397.129C906.626 405.146 900.514 418.967 897.899 431.945L890.094 420.415L882.709 411.376Z" fill="#D76B6A"/>
<path d="M882.709 411.376C887.409 401.675 890.821 392.611 899.423 385.905L908.99 391.482C899.815 402.084 896.052 407.66 890.094 420.415L882.709 411.376Z" fill="#EA9D9A"/>
<path d="M897.898 431.945C900.514 418.967 906.626 405.146 917.564 397.129L928.389 402.971C924.417 406.825 921.2 409.867 917.759 414.298C911.591 422.201 910.263 436.473 903.885 441.812C901.535 438.489 899.899 435.488 897.898 431.945Z" fill="#EA9D9A"/>
<path d="M906.346 448.631C918.626 444.844 946.893 446.361 955.705 456.007C954.138 457.938 953.607 459.504 950.488 459.247C933.494 457.844 927.284 455.302 909.507 455.688L906.346 448.631Z" fill="#EA9D9A"/>
<path d="M938.599 409.538L951.215 417.147C935.2 425.651 939.914 419.696 928.85 437.989C923.577 439.941 925.185 440.254 920.892 438.779C916.835 426.998 929.955 415.656 938.599 409.538Z" fill="#EA9D9A"/>
<path d="M964.475 424.961L975.077 430.8C974.643 438.223 975.65 447.059 968.014 450.183L965.3 447.951C961.691 440.273 963.412 433.419 964.475 424.961Z" fill="#EA9D9A"/>
<path d="M917.438 465.673C923.116 462.796 935.648 462.515 939.425 468.865C937.928 472.409 935.382 473.603 932.152 475.855C927.997 473.354 921.592 468.593 917.438 465.673Z" fill="#EA9D9A"/>
<path d="M946.669 426.734L951.131 427.662C954.628 431.361 953.537 429.216 954.292 434.423C952.698 439.162 952.684 439.373 949.033 442.62C944.39 440.809 943.341 440.812 940.571 436.975C941.424 431.489 942.753 431.421 946.669 426.734Z" fill="#EA9D9A"/>
<path d="M714.504 450.612C714.644 453.453 708.252 464.304 706.448 468.15L705.65 471.795C705.818 477.772 705.385 485.328 707.707 490.536L709.93 497.919C703.804 505.42 682.545 497.122 662.012 530.681L653.536 525.247C644.99 518.482 629.843 508.511 620.472 501.838C622.192 500.525 626.136 498.261 628.15 497.027C631.941 494.666 633.199 494.025 637.312 492.284C648.934 484.828 664.376 476.86 676.88 471.148L686.433 465.491L697.286 459.94C701.832 456.652 709.315 453.226 714.504 450.612Z" fill="#DC7976"/>
<path d="M653.535 525.246C670.039 500.819 677.62 493.003 707.706 490.535L709.93 497.919C703.803 505.419 682.544 497.122 662.011 530.68L653.535 525.246Z" fill="#EA9D9A"/>
<path d="M714.505 450.612C714.645 453.453 708.253 464.304 706.448 468.15L705.651 471.795C702.994 477.525 707.106 478.142 698.979 482.235L697.035 480.663C694.602 473.7 696.224 467.297 697.287 459.94C701.833 456.652 709.316 453.226 714.505 450.612Z" fill="#EA9D9A"/>
<path d="M628.15 497.027C631.941 494.667 633.199 494.025 637.312 492.284C645.046 492.979 653.676 492.717 658.865 498.465L657.97 500.741C650.599 503.51 634.878 500.354 628.15 497.027Z" fill="#EA9D9A"/>
<path d="M676.88 471.147L686.432 465.491C686.139 474.696 687.481 480.597 680.418 487.076C673.872 485.42 676.334 476.816 676.88 471.147Z" fill="#EA9D9A"/>
<path d="M709.93 497.919C711.063 500.644 713.357 505.684 714.196 508.276L718.378 518.095C720.085 521.176 722.154 524.682 723.721 527.773L730.896 538.823C713.832 537.039 705.958 539.017 697.342 555.511L688.614 549.225L678.824 542.778L671.383 537.23C667.173 535.187 665.676 533.69 662.012 530.68C682.544 497.122 703.804 505.419 709.93 497.919Z" fill="#DC7976"/>
<path d="M718.379 518.095C720.085 521.176 722.155 524.682 723.721 527.773L730.897 538.823C713.833 537.039 705.958 539.017 697.343 555.511L688.615 549.225L678.824 542.778C692.993 526.575 696.629 522.025 718.379 518.095Z" fill="#D76B6A"/>
<path d="M688.615 549.226C699.329 533.803 704.476 528.589 723.722 527.774L730.897 538.823C713.833 537.039 705.959 539.018 697.343 555.511L688.615 549.226Z" fill="#EA9D9A"/>
<path d="M671.383 537.231C678.838 518.328 695.356 511.048 714.196 508.277L718.378 518.096C696.629 522.025 692.992 526.575 678.824 542.778L671.383 537.231Z" fill="#EA9D9A"/>
<path d="M697.343 555.511C705.959 539.018 713.833 537.039 730.897 538.823C733.149 541.662 738.534 548.084 740.212 550.855C749.024 560.031 748.562 562.313 750.366 575.257C752.758 584.153 755.206 589.871 759.598 598.077L757.569 598.018C737.918 583.098 717.679 569.448 697.343 555.511Z" fill="#DC7976"/>
<path d="M740.212 550.855C749.024 560.031 748.562 562.313 750.367 575.257C745.135 578.013 745.891 578.322 740.967 577.708C735.932 571.521 736.45 557.094 740.212 550.855Z" fill="#EA9D9A"/>
<path d="M716.771 547.78C721.988 547.62 723.023 547.938 728.226 549.021L728.772 552.516L729.233 552.52L726.422 555.075C723.806 554.907 722.562 554.95 720.03 555.68C716.771 561.075 718.31 560.211 713.414 562.845L710.981 561.945L709.974 558.032C710.687 552.85 712.785 551.712 716.771 547.78Z" fill="#EA9D9A"/>
<path d="M803.922 462.473C804.286 461.516 804.677 460.565 805.083 459.622C809.643 449.175 816.006 446.435 825.839 442.599C822.916 459.267 817.433 455.342 803.922 462.473Z" fill="#D76B6A"/>
<path d="M724.491 484.478C743.877 485.401 754.604 488.425 771.542 498.31C765.92 511.155 761.794 519.232 759.822 533.125L758.465 542.666C738.38 521.082 732.953 512.544 724.491 484.478Z" fill="#D76B6A"/>
<path d="M861.602 413.588C871.854 421.952 892.681 449.444 891.184 462.998L889.45 464.133L882.806 462.049C871.309 458.191 861.518 457.882 849.644 457.208C852.175 437.451 852.315 430.99 861.602 413.588Z" fill="#DC7976"/>
<path d="M813.489 534.139C821.391 533.237 839.937 534.577 843.015 543.6C838.399 545.58 820.524 545.245 808.649 548.085C798.845 551.283 781.403 550.215 778.592 537.621C783.627 535.999 803.306 536.508 813.489 534.139Z" fill="#7B2B2A"/>
<path d="M894.429 475.225C911.199 494.75 881.085 508.356 877.966 532.689C877.575 532.741 876.106 531.98 875.645 531.777C864.693 503.989 889.743 495.426 894.429 475.225Z" fill="#7B2B2A"/>
<path d="M816.859 560.689L818.258 562.486C812.118 571.979 795.278 574.196 785.068 570.706C782.76 568.278 782.83 568.488 781.669 565.358C784.396 563.917 804.733 563.992 816.859 560.689Z" fill="#DC7976"/>
<path d="M917.716 490.074C930.025 503.234 914.01 513.551 903.058 518.652L901.688 517.935C901.646 512.075 913.129 506.73 917.716 490.074Z" fill="#D76B6A"/>
<path d="M659.998 244.08C668.138 246.027 729.05 284.102 740.044 290.719L849.475 355.991C820.425 373.198 788.438 389.157 758.576 405.169C708.238 432.159 656.837 461.392 606.051 487.144C603.813 488.738 603.645 488.979 602.89 488.509C564.972 464.916 448.997 383.68 418.799 362.356C440.019 351.101 462.899 340.739 484.539 330.062L659.998 244.08Z" fill="#2E656B"/>
<path d="M613.704 286.612C618.571 287.946 617.34 286.912 620.501 290.198C622.949 299.783 617.536 326.197 616.081 338.433C678.182 310.087 676.14 291.686 717.569 356.006C723.373 365.025 737.43 375.359 734.297 387.484C728.618 394.951 650.363 432.187 635.9 439.208C627.299 443.427 608.962 454.769 601.255 446.58C589.451 434.025 549.645 388.067 548.554 373.177C552.736 366.766 588.052 351.64 599.577 344.629C585.031 339.083 569.813 337.184 556.778 328.03L556.806 326.211C569.464 325.175 594.724 334.631 608.71 338.771C609.662 321.324 611.326 303.923 613.704 286.612Z" fill="white"/>
<path d="M648.39 336.665C663.09 340.187 684.14 374.037 692.923 386.794C702.141 400.189 623.787 430.78 614.514 434.287C602.639 433.721 595.618 420.937 589.604 411.87C583.981 403.387 568.722 390.232 569.141 380.553C575.226 366.35 631.774 343.661 648.39 336.665Z" fill="#2E656B"/>
<path d="M693.594 350.998C697.356 350.004 701.272 352.039 702.615 355.694C703.958 359.349 702.293 363.427 698.783 365.108C696.195 366.346 693.132 366.012 690.866 364.246C688.614 362.48 687.551 359.585 688.125 356.778C688.698 353.968 690.824 351.73 693.594 350.998Z" fill="#2E656B"/>
<path d="M678.825 331.632C682.601 330.786 686.392 332.949 687.581 336.624C688.769 340.301 686.965 344.276 683.413 345.796C680.811 346.913 677.79 346.459 675.622 344.626C673.468 342.791 672.531 339.892 673.202 337.139C673.887 334.387 676.055 332.254 678.825 331.632Z" fill="#2E656B"/>
<path d="M215.799 244.966C233.053 259.748 259.623 273.373 276.144 288.09C291.376 297.6 328.408 321.904 341.459 332.795C352.879 340.36 393.579 369.929 401.876 374.005C407.921 405.149 421.409 460.659 430.315 491.386C412.793 480.863 387.305 462.375 369.844 450.37C347.812 435.045 325.702 419.836 303.512 404.742C285.227 391.69 265.541 378.799 246.912 366.053C235.524 327.738 226.174 284.129 215.799 244.966Z" fill="black"/>
<path d="M341.461 332.794C352.881 340.359 393.581 369.929 401.878 374.005C407.923 405.149 421.41 460.659 430.317 491.386C412.794 480.863 387.306 462.374 369.845 450.37C365.181 423.8 354.319 392.331 348.423 365.56C346.464 356.667 341.346 341.229 341.461 332.794Z" fill="#F0EDE7"/>
<path d="M215.799 244.966C233.053 259.748 259.623 273.373 276.144 288.09C279.607 301.809 305.522 399.712 303.512 404.742C285.227 391.69 265.541 378.799 246.912 366.053C235.524 327.738 226.174 284.129 215.799 244.966Z" fill="#F0EDE7"/>
<path d="M182.92 79.1619C196.516 82.2592 278.036 132.478 294.872 142.42L535.012 284.479C491.346 306.759 443.756 327.675 400.929 350.611L231.468 233.402C229.461 231.713 229.821 231.908 228.252 229.738C231.231 227.986 320.753 211.095 332.008 208.71L347.163 220.081C314.715 233.337 305.841 263.412 331.259 289.619C350.613 308.714 381.205 313.092 406.836 308.165C431.028 303.515 446.412 291.345 466.377 311.783L474.394 299.675C452.362 277.114 427.481 292.91 404.291 302.985C454.195 251.986 389.994 228.004 354.363 201.743C297.895 160.122 239.244 120.922 182.92 79.1619Z" fill="#F0EDE7"/>
<path d="M401.876 374.005C422.505 389.159 444.961 403.79 466.125 418.416C470.065 421.125 494.871 437.891 496.871 440.14C511.081 448.909 523.683 458.829 536.929 467.115C545.446 473.327 553.447 478.65 562.231 484.42C566.636 504.708 587.546 585.473 586.987 599.285C579.084 594.168 570.776 588.227 562.958 582.863C550.048 574.432 536.649 564.798 523.921 555.945C513.809 548.85 503.584 541.915 493.248 535.142C472.435 520.329 451.453 505.743 430.315 491.386C421.408 460.659 407.921 405.149 401.876 374.005Z" fill="#2E656B"/>
<path d="M496.871 440.14C511.082 448.909 523.684 458.829 536.929 467.115C545.447 473.327 553.447 478.65 562.231 484.42C566.637 504.708 587.547 585.474 586.987 599.285C579.085 594.169 570.777 588.227 562.958 582.863C550.049 574.432 536.649 564.798 523.921 555.945C515.963 518.418 505.571 477.876 496.871 440.14Z" fill="#2E656B"/>
<path d="M536.929 467.115C545.447 473.327 553.447 478.65 562.231 484.42C566.637 504.708 587.547 585.474 586.987 599.285C579.085 594.169 570.777 588.227 562.958 582.863C556.356 548.472 541.237 498.807 536.929 467.115Z" fill="#F0EDE7"/>
<path d="M466.126 418.416C470.066 421.125 494.871 437.891 496.872 440.139C505.571 477.875 515.963 518.417 523.922 555.945C513.809 548.849 503.585 541.915 493.249 535.141C484.783 502.728 472.111 450.244 466.126 418.416Z" fill="#F0EDE7"/>
<path d="M562.23 484.419C574.553 493.117 589.42 504.283 601.785 512.32C610.205 518.488 618.387 523.892 627.073 529.623C662.249 554.08 707.832 583.239 740.98 608.326C716.14 623.098 690.097 638.144 665.718 653.448C661.41 650.338 657.116 647.204 652.836 644.05C644.906 638.579 635.8 631.94 627.478 627.342L586.987 599.285C587.546 585.473 566.636 504.708 562.23 484.419Z" fill="#2E656B"/>
<path d="M627.074 529.623C662.251 554.08 707.833 583.238 740.982 608.326C716.141 623.098 690.098 638.144 665.719 653.448C661.412 650.338 657.118 647.204 652.838 644.05C650.362 619.91 632.851 557.119 627.074 529.623Z" fill="#D76B6A"/>
<path d="M601.785 512.32C610.205 518.488 618.387 523.891 627.073 529.623C632.85 557.119 650.361 619.91 652.837 644.049C644.906 638.579 635.801 631.94 627.479 627.342C619.674 594.463 607.114 544.03 601.785 512.32Z" fill="#F0EDE7"/>
<path d="M340.724 55.8067C342.246 55.5676 345.251 54.9956 346.615 55.7354C368.191 67.4451 393.581 83.4967 414.506 95.8692C378.044 103.405 335.62 112.944 299.541 119.167C290.913 122.099 237.08 86.6974 226.173 79.5855C263.956 70.8836 303.193 65.0721 340.724 55.8067Z" fill="#F0EDE7"/>
<path d="M484.093 141.248C493.627 139.673 543.923 172.917 556.511 180.638C527.153 184.679 470.065 197.29 440.792 204.019L438.396 204.684C432.636 202.681 378.087 169.457 368.716 163.888C406.72 157.038 445.901 148.557 484.093 141.248Z" fill="#F0EDE7"/>
<path d="M199.779 120.298C200.292 120.18 200.798 120.032 201.317 119.945C210.673 118.391 257.717 155.256 267.839 162.421C235.233 167.117 195.953 176.122 162.647 182.216C154.045 183.654 108.297 148.112 95.3848 140.511C129.424 132.93 165.3 127.538 199.779 120.298Z" fill="#F0EDE7"/>
<path d="M91.8613 161.415C101.193 165.766 139.97 193.961 150.112 201.172C161.602 240.365 171.055 281.546 180.756 321.347C167.877 314.708 135.29 291.059 122.07 281.957C112.023 247.028 99.2883 196.617 91.8613 161.415Z" fill="#F0EDE7"/>
<path d="M624.975 225.28C631.087 224.374 637.744 228.756 643.563 231.636C615.771 243.935 582.805 261.196 555.111 274.763C549.866 271.874 544.285 268.492 539.068 265.461C529.46 259.953 520.005 254.205 510.689 248.223C548.467 240.705 587.141 231.847 624.975 225.28Z" fill="#F0EDE7"/>
<path d="M39.5848 172.792C43.2409 176.58 55.1925 229.412 57.5464 238.471C52.6371 236.031 42.7051 228.94 37.7217 225.564C37.7804 206.352 37.5301 191.92 39.5848 172.792Z" fill="#F0EDE7"/>
<path d="M380.782 276.128C390.128 275.839 395.757 276.471 399.693 285.572C398.89 292.353 399.72 289.721 395.284 295.908C381.713 297.166 371.683 289.623 380.782 276.128Z" fill="#F0EDE7"/>
<path d="M334.238 242.905C342.952 244.471 348.625 245.236 350.415 254.722C348.991 260.068 348.71 260.161 344.317 263.861C335.319 262.75 328.583 260.563 327.101 250.78C329.671 245.083 328.626 246.963 334.238 242.905Z" fill="#F0EDE7"/>
<path d="M394.046 246.737C402.425 247.766 407.972 250.128 409.479 258.972C408.204 264.27 407.173 264.563 402.724 268.279C394.251 266.568 387.574 264.869 386.682 255.199C388.678 250.116 389.342 250.016 394.046 246.737Z" fill="#F9F8F7"/>
<path d="M344.465 273.18C352.804 273.039 360.18 274.045 363.172 282.902C362.55 289.211 363.257 286.781 358.849 292.652C344.427 293.598 335.39 287.3 344.465 273.18Z" fill="#F0EDE7"/>
<path d="M360.465 227.436C370.004 227.509 376.544 228.521 378.793 238.726C377.614 243.4 377.599 243.145 374.285 246.771C365.464 247.087 360.564 246.244 356.494 238.142C356.8 231.455 356.284 234.006 360.465 227.436Z" fill="#F0EDE7"/>
</svg>
